<mxfile host="drawio-plugin" modified="2022-07-27T02:42:43.774Z" agent="5.0 (Windows NT 6.2; Win64; x64) AppleWebKit/537.36 (KHTML, like Gecko) Chrome/89.0.4389.114 Safari/537.36" etag="eaqqTaebZ8xOdwNJ0we9" version="15.5.4" type="embed" pages="8"><diagram id="qOT2HNkKHY7KAXEcqiIJ" name="图1-1"><mxGraphModel dx="477" dy="293" grid="0" gridSize="10" guides="1" tooltips="1" connect="1" arrows="1" fold="1" page="1" pageScale="1" pageWidth="550" pageHeight="1000" math="0" shadow="0"><root><mxCell id="0"/><mxCell id="1" parent="0"/><mxCell id="7lhPt-7V3wJhdjxpnAxm-3" value="X" style="whiteSpace=wrap;html=1;aspect=fixed;fillColor=#008a00;fontColor=#ffffff;strokeColor=#000000;" parent="1" vertex="1"><mxGeometry x="75" y="160" width="36" height="36" as="geometry"/></mxCell><mxCell id="7lhPt-7V3wJhdjxpnAxm-4" value="" style="whiteSpace=wrap;html=1;aspect=fixed;" parent="1" vertex="1"><mxGeometry x="111" y="160" width="36" height="36" as="geometry"/></mxCell><mxCell id="7lhPt-7V3wJhdjxpnAxm-5" value="Y" style="whiteSpace=wrap;html=1;aspect=fixed;fillColor=#fa6800;fontColor=#000000;strokeColor=#000000;" parent="1" vertex="1"><mxGeometry x="179" y="160" width="36" height="36" as="geometry"/></mxCell><mxCell id="7lhPt-7V3wJhdjxpnAxm-6" value="" style="whiteSpace=wrap;html=1;aspect=fixed;" parent="1" vertex="1"><mxGeometry x="215" y="160" width="36" height="36" as="geometry"/></mxCell><mxCell id="7lhPt-7V3wJhdjxpnAxm-7" value="Z" style="whiteSpace=wrap;html=1;aspect=fixed;fillColor=#e3c800;fontColor=#000000;strokeColor=#000000;" parent="1" vertex="1"><mxGeometry x="281" y="160" width="36" height="36" as="geometry"/></mxCell><mxCell id="7lhPt-7V3wJhdjxpnAxm-8" value="" style="whiteSpace=wrap;html=1;aspect=fixed;" parent="1" vertex="1"><mxGeometry x="317" y="160" width="36" height="36" as="geometry"/></mxCell><mxCell id="7lhPt-7V3wJhdjxpnAxm-9" value="" style="whiteSpace=wrap;html=1;aspect=fixed;fillColor=#000000;sketch=1;strokeColor=default;" parent="1" vertex="1"><mxGeometry x="384" y="160" width="36" height="36" as="geometry"/></mxCell><mxCell id="7lhPt-7V3wJhdjxpnAxm-11" value="" style="ellipse;html=1;shape=startState;fillColor=#000000;strokeColor=none;" parent="1" vertex="1"><mxGeometry x="114" y="163" width="30" height="30" as="geometry"/></mxCell><mxCell id="7lhPt-7V3wJhdjxpnAxm-12" value="" style="html=1;verticalAlign=bottom;endArrow=block;endSize=8;strokeColor=#000000;rounded=0;endFill=1;entryX=0;entryY=0.5;entryDx=0;entryDy=0;" parent="1" source="7lhPt-7V3wJhdjxpnAxm-11" target="7lhPt-7V3wJhdjxpnAxm-5" edge="1"><mxGeometry relative="1" as="geometry"><mxPoint x="167" y="178" as="targetPoint"/></mxGeometry></mxCell><mxCell id="7lhPt-7V3wJhdjxpnAxm-13" value="" style="ellipse;html=1;shape=startState;fillColor=#000000;strokeColor=none;" parent="1" vertex="1"><mxGeometry x="218" y="163" width="30" height="30" as="geometry"/></mxCell><mxCell id="7lhPt-7V3wJhdjxpnAxm-15" value="" style="html=1;verticalAlign=bottom;endArrow=block;endSize=8;strokeColor=#000000;rounded=0;endFill=1;exitX=1;exitY=0.5;exitDx=0;exitDy=0;entryX=0;entryY=0.5;entryDx=0;entryDy=0;" parent="1" source="7lhPt-7V3wJhdjxpnAxm-13" target="7lhPt-7V3wJhdjxpnAxm-7" edge="1"><mxGeometry relative="1" as="geometry"><mxPoint x="191.0000000000001" y="188" as="targetPoint"/><mxPoint x="154" y="188" as="sourcePoint"/></mxGeometry></mxCell><mxCell id="7lhPt-7V3wJhdjxpnAxm-18" value="" style="ellipse;html=1;shape=startState;fillColor=#000000;strokeColor=none;" parent="1" vertex="1"><mxGeometry x="321" y="163" width="30" height="30" as="geometry"/></mxCell><mxCell id="7lhPt-7V3wJhdjxpnAxm-19" value="" style="html=1;verticalAlign=bottom;endArrow=block;endSize=8;strokeColor=#000000;rounded=0;endFill=1;exitX=1;exitY=0.5;exitDx=0;exitDy=0;entryX=0;entryY=0.5;entryDx=0;entryDy=0;" parent="1" source="7lhPt-7V3wJhdjxpnAxm-18" target="7lhPt-7V3wJhdjxpnAxm-9" edge="1"><mxGeometry relative="1" as="geometry"><mxPoint x="384" y="178" as="targetPoint"/><mxPoint x="257" y="188" as="sourcePoint"/></mxGeometry></mxCell><mxCell id="7lhPt-7V3wJhdjxpnAxm-21" value="" style="endArrow=classic;html=1;rounded=0;strokeColor=#000000;entryX=0.5;entryY=0;entryDx=0;entryDy=0;" parent="1" source="7lhPt-7V3wJhdjxpnAxm-22" target="7lhPt-7V3wJhdjxpnAxm-3" edge="1"><mxGeometry width="50" height="50" relative="1" as="geometry"><mxPoint x="122" y="125" as="sourcePoint"/><mxPoint x="242" y="65" as="targetPoint"/></mxGeometry></mxCell><mxCell id="7lhPt-7V3wJhdjxpnAxm-22" value="&lt;font face=&quot;Comic Sans MS&quot;&gt;Head&lt;/font&gt;" style="text;html=1;align=center;verticalAlign=middle;resizable=0;points=[];autosize=1;strokeColor=none;fillColor=none;" parent="1" vertex="1"><mxGeometry x="125" y="111" width="39" height="19" as="geometry"/></mxCell><mxCell id="7lhPt-7V3wJhdjxpnAxm-23" value="&lt;font face=&quot;Comic Sans MS&quot;&gt;NULL&lt;/font&gt;" style="text;html=1;align=center;verticalAlign=middle;resizable=0;points=[];autosize=1;strokeColor=none;fillColor=none;" parent="1" vertex="1"><mxGeometry x="381.5" y="199" width="42" height="19" as="geometry"/></mxCell></root></mxGraphModel></diagram><diagram id="5yRWbps5BidY-RSoTN84" name="图1-2"><mxGraphModel dx="477" dy="293" grid="0" gridSize="10" guides="1" tooltips="1" connect="1" arrows="1" fold="1" page="1" pageScale="1" pageWidth="550" pageHeight="1000" math="0" shadow="0"><root><mxCell id="0"/><mxCell id="1" parent="0"/><mxCell id="U7uu0NJRkNOFMq5N9gOC-1" value="" style="rounded=0;whiteSpace=wrap;html=1;sketch=0;fontFamily=Comic Sans MS;" parent="1" vertex="1"><mxGeometry x="113" y="161" width="14" height="36" as="geometry"/></mxCell><mxCell id="U7uu0NJRkNOFMq5N9gOC-2" value="X" style="whiteSpace=wrap;html=1;aspect=fixed;fillColor=#008a00;fontColor=#ffffff;strokeColor=#000000;" parent="1" vertex="1"><mxGeometry x="77" y="161" width="36" height="36" as="geometry"/></mxCell><mxCell id="U7uu0NJRkNOFMq5N9gOC-3" value="Y" style="whiteSpace=wrap;html=1;aspect=fixed;fillColor=#fa6800;fontColor=#000000;strokeColor=#000000;" parent="1" vertex="1"><mxGeometry x="174.5" y="161" width="36" height="36" as="geometry"/></mxCell><mxCell id="U7uu0NJRkNOFMq5N9gOC-4" value="Z" style="whiteSpace=wrap;html=1;aspect=fixed;fillColor=#e3c800;fontColor=#000000;strokeColor=#000000;" parent="1" vertex="1"><mxGeometry x="271.5" y="161" width="36" height="36" as="geometry"/></mxCell><mxCell id="U7uu0NJRkNOFMq5N9gOC-5" value="" style="ellipse;html=1;shape=startState;fillColor=#000000;strokeColor=none;sketch=0;fontFamily=Comic Sans MS;" parent="1" vertex="1"><mxGeometry x="111.5" y="170.5" width="17" height="17" as="geometry"/></mxCell><mxCell id="U7uu0NJRkNOFMq5N9gOC-6" value="" style="html=1;verticalAlign=bottom;endArrow=blockThin;endSize=8;strokeColor=#000000;rounded=0;fontFamily=Comic Sans MS;sketch=0;endFill=1;entryX=0;entryY=0.5;entryDx=0;entryDy=0;exitX=1;exitY=0.5;exitDx=0;exitDy=0;" parent="1" source="U7uu0NJRkNOFMq5N9gOC-1" target="U7uu0NJRkNOFMq5N9gOC-3" edge="1"><mxGeometry relative="1" as="geometry"><mxPoint x="160.5" y="179" as="targetPoint"/><mxPoint x="133" y="170" as="sourcePoint"/></mxGeometry></mxCell><mxCell id="U7uu0NJRkNOFMq5N9gOC-7" value="" style="rounded=0;whiteSpace=wrap;html=1;sketch=0;fontFamily=Comic Sans MS;" parent="1" vertex="1"><mxGeometry x="210" y="161" width="14" height="36" as="geometry"/></mxCell><mxCell id="U7uu0NJRkNOFMq5N9gOC-8" value="" style="ellipse;html=1;shape=startState;fillColor=#000000;strokeColor=none;sketch=0;fontFamily=Comic Sans MS;" parent="1" vertex="1"><mxGeometry x="208.5" y="170.5" width="17" height="17" as="geometry"/></mxCell><mxCell id="U7uu0NJRkNOFMq5N9gOC-9" value="" style="html=1;verticalAlign=bottom;endArrow=blockThin;endSize=8;strokeColor=#000000;rounded=0;fontFamily=Comic Sans MS;sketch=0;endFill=1;entryX=0;entryY=0.5;entryDx=0;entryDy=0;exitX=1;exitY=0.5;exitDx=0;exitDy=0;" parent="1" source="U7uu0NJRkNOFMq5N9gOC-7" target="U7uu0NJRkNOFMq5N9gOC-4" edge="1"><mxGeometry relative="1" as="geometry"><mxPoint x="257.5" y="179" as="targetPoint"/><mxPoint x="230" y="170" as="sourcePoint"/></mxGeometry></mxCell><mxCell id="U7uu0NJRkNOFMq5N9gOC-10" value="" style="rounded=0;whiteSpace=wrap;html=1;sketch=0;fontFamily=Comic Sans MS;" parent="1" vertex="1"><mxGeometry x="307.5" y="161" width="14" height="36" as="geometry"/></mxCell><mxCell id="U7uu0NJRkNOFMq5N9gOC-11" value="" style="whiteSpace=wrap;html=1;aspect=fixed;fillColor=#000000;sketch=1;strokeColor=default;" parent="1" vertex="1"><mxGeometry x="366.5" y="161" width="36" height="36" as="geometry"/></mxCell><mxCell id="U7uu0NJRkNOFMq5N9gOC-12" value="&lt;font face=&quot;Comic Sans MS&quot;&gt;NULL&lt;/font&gt;" style="text;html=1;align=center;verticalAlign=middle;resizable=0;points=[];autosize=1;strokeColor=none;fillColor=none;" parent="1" vertex="1"><mxGeometry x="364" y="200" width="42" height="19" as="geometry"/></mxCell><mxCell id="U7uu0NJRkNOFMq5N9gOC-13" value="" style="ellipse;html=1;shape=startState;fillColor=#000000;strokeColor=none;sketch=0;fontFamily=Comic Sans MS;" parent="1" vertex="1"><mxGeometry x="306" y="170.5" width="17" height="17" as="geometry"/></mxCell><mxCell id="U7uu0NJRkNOFMq5N9gOC-14" value="" style="html=1;verticalAlign=bottom;endArrow=blockThin;endSize=8;strokeColor=#000000;rounded=0;fontFamily=Comic Sans MS;sketch=0;endFill=1;entryX=0;entryY=0.5;entryDx=0;entryDy=0;exitX=1;exitY=0.5;exitDx=0;exitDy=0;" parent="1" source="U7uu0NJRkNOFMq5N9gOC-10" target="U7uu0NJRkNOFMq5N9gOC-11" edge="1"><mxGeometry relative="1" as="geometry"><mxPoint x="352" y="178" as="targetPoint"/><mxPoint x="327" y="174" as="sourcePoint"/></mxGeometry></mxCell><mxCell id="U7uu0NJRkNOFMq5N9gOC-15" value="" style="endArrow=classic;html=1;rounded=0;strokeColor=#000000;entryX=0.5;entryY=0;entryDx=0;entryDy=0;" parent="1" source="U7uu0NJRkNOFMq5N9gOC-16" target="U7uu0NJRkNOFMq5N9gOC-2" edge="1"><mxGeometry width="50" height="50" relative="1" as="geometry"><mxPoint x="124.5" y="118" as="sourcePoint"/><mxPoint x="95.5" y="153" as="targetPoint"/></mxGeometry></mxCell><mxCell id="U7uu0NJRkNOFMq5N9gOC-16" value="&lt;font face=&quot;Comic Sans MS&quot;&gt;Head&lt;/font&gt;" style="text;html=1;align=center;verticalAlign=middle;resizable=0;points=[];autosize=1;strokeColor=none;fillColor=none;" parent="1" vertex="1"><mxGeometry x="113" y="120" width="39" height="19" as="geometry"/></mxCell></root></mxGraphModel></diagram><diagram id="xV9f9FFwkTnsN6v61dQq" name="图1-3"><mxGraphModel dx="477" dy="293" grid="0" gridSize="10" guides="1" tooltips="1" connect="1" arrows="1" fold="1" page="1" pageScale="1" pageWidth="550" pageHeight="1000" math="0" shadow="0"><root><mxCell id="0"/><mxCell id="1" parent="0"/><mxCell id="oogcSYDILuJUCikxN3u_-19" value="" style="rounded=0;whiteSpace=wrap;html=1;sketch=0;fontFamily=Comic Sans MS;" parent="1" vertex="1"><mxGeometry x="192" y="160" width="14" height="36" as="geometry"/></mxCell><mxCell id="oogcSYDILuJUCikxN3u_-1" value="X" style="whiteSpace=wrap;html=1;aspect=fixed;fillColor=#008a00;fontColor=#ffffff;strokeColor=#000000;" parent="1" vertex="1"><mxGeometry x="156" y="160" width="36" height="36" as="geometry"/></mxCell><mxCell id="oogcSYDILuJUCikxN3u_-3" value="Y" style="whiteSpace=wrap;html=1;aspect=fixed;fillColor=#fa6800;fontColor=#000000;strokeColor=#000000;" parent="1" vertex="1"><mxGeometry x="253.5" y="160" width="36" height="36" as="geometry"/></mxCell><mxCell id="oogcSYDILuJUCikxN3u_-5" value="Z" style="whiteSpace=wrap;html=1;aspect=fixed;fillColor=#e3c800;fontColor=#000000;strokeColor=#000000;" parent="1" vertex="1"><mxGeometry x="350.5" y="160" width="36" height="36" as="geometry"/></mxCell><mxCell id="oogcSYDILuJUCikxN3u_-7" value="" style="whiteSpace=wrap;html=1;aspect=fixed;fillColor=#000000;sketch=1;strokeColor=default;" parent="1" vertex="1"><mxGeometry x="433.5" y="160" width="36" height="36" as="geometry"/></mxCell><mxCell id="oogcSYDILuJUCikxN3u_-14" value="" style="endArrow=classic;html=1;rounded=0;strokeColor=#000000;entryX=0.5;entryY=0;entryDx=0;entryDy=0;" parent="1" source="oogcSYDILuJUCikxN3u_-15" target="oogcSYDILuJUCikxN3u_-1" edge="1"><mxGeometry width="50" height="50" relative="1" as="geometry"><mxPoint x="203" y="125" as="sourcePoint"/><mxPoint x="323" y="65" as="targetPoint"/></mxGeometry></mxCell><mxCell id="oogcSYDILuJUCikxN3u_-15" value="&lt;font face=&quot;Comic Sans MS&quot;&gt;Head&lt;/font&gt;" style="text;html=1;align=center;verticalAlign=middle;resizable=0;points=[];autosize=1;strokeColor=none;fillColor=none;" parent="1" vertex="1"><mxGeometry x="206" y="111" width="39" height="19" as="geometry"/></mxCell><mxCell id="oogcSYDILuJUCikxN3u_-16" value="&lt;font face=&quot;Comic Sans MS&quot;&gt;NULL&lt;/font&gt;" style="text;html=1;align=center;verticalAlign=middle;resizable=0;points=[];autosize=1;strokeColor=none;fillColor=none;" parent="1" vertex="1"><mxGeometry x="431" y="199" width="42" height="19" as="geometry"/></mxCell><mxCell id="oogcSYDILuJUCikxN3u_-17" value="" style="ellipse;html=1;shape=startState;fillColor=#000000;strokeColor=none;sketch=0;fontFamily=Comic Sans MS;" parent="1" vertex="1"><mxGeometry x="190.5" y="160" width="17" height="17" as="geometry"/></mxCell><mxCell id="oogcSYDILuJUCikxN3u_-18" value="" style="html=1;verticalAlign=bottom;endArrow=blockThin;endSize=8;strokeColor=#000000;rounded=0;fontFamily=Comic Sans MS;sketch=0;endFill=1;entryX=0;entryY=0.25;entryDx=0;entryDy=0;exitX=1.031;exitY=0.246;exitDx=0;exitDy=0;exitPerimeter=0;" parent="1" source="oogcSYDILuJUCikxN3u_-19" target="oogcSYDILuJUCikxN3u_-22" edge="1"><mxGeometry relative="1" as="geometry"><mxPoint x="242" y="169" as="targetPoint"/><mxPoint x="212" y="169" as="sourcePoint"/></mxGeometry></mxCell><mxCell id="oogcSYDILuJUCikxN3u_-22" value="" style="rounded=0;whiteSpace=wrap;html=1;sketch=0;fontFamily=Comic Sans MS;" parent="1" vertex="1"><mxGeometry x="239.5" y="160" width="14" height="36" as="geometry"/></mxCell><mxCell id="oogcSYDILuJUCikxN3u_-23" value="" style="ellipse;html=1;shape=startState;fillColor=#000000;strokeColor=none;sketch=0;fontFamily=Comic Sans MS;" parent="1" vertex="1"><mxGeometry x="238" y="179" width="17" height="17" as="geometry"/></mxCell><mxCell id="oogcSYDILuJUCikxN3u_-24" value="" style="html=1;verticalAlign=bottom;endArrow=blockThin;endSize=8;strokeColor=#000000;rounded=0;fontFamily=Comic Sans MS;sketch=0;endFill=1;entryX=1;entryY=0.75;entryDx=0;entryDy=0;exitX=0;exitY=0.75;exitDx=0;exitDy=0;" parent="1" source="oogcSYDILuJUCikxN3u_-22" target="oogcSYDILuJUCikxN3u_-19" edge="1"><mxGeometry relative="1" as="geometry"><mxPoint x="237" y="178.99999999999994" as="targetPoint"/><mxPoint x="214.69500000000005" y="179.027" as="sourcePoint"/></mxGeometry></mxCell><mxCell id="oogcSYDILuJUCikxN3u_-28" value="" style="rounded=0;whiteSpace=wrap;html=1;sketch=0;fontFamily=Comic Sans MS;" parent="1" vertex="1"><mxGeometry x="289" y="160" width="14" height="36" as="geometry"/></mxCell><mxCell id="oogcSYDILuJUCikxN3u_-29" value="" style="ellipse;html=1;shape=startState;fillColor=#000000;strokeColor=none;sketch=0;fontFamily=Comic Sans MS;" parent="1" vertex="1"><mxGeometry x="287.5" y="160" width="17" height="17" as="geometry"/></mxCell><mxCell id="oogcSYDILuJUCikxN3u_-30" value="" style="html=1;verticalAlign=bottom;endArrow=blockThin;endSize=8;strokeColor=#000000;rounded=0;fontFamily=Comic Sans MS;sketch=0;endFill=1;entryX=0;entryY=0.25;entryDx=0;entryDy=0;exitX=1.031;exitY=0.246;exitDx=0;exitDy=0;exitPerimeter=0;" parent="1" source="oogcSYDILuJUCikxN3u_-28" target="oogcSYDILuJUCikxN3u_-31" edge="1"><mxGeometry relative="1" as="geometry"><mxPoint x="339" y="169" as="targetPoint"/><mxPoint x="309" y="169" as="sourcePoint"/></mxGeometry></mxCell><mxCell id="oogcSYDILuJUCikxN3u_-31" value="" style="rounded=0;whiteSpace=wrap;html=1;sketch=0;fontFamily=Comic Sans MS;" parent="1" vertex="1"><mxGeometry x="336.5" y="160" width="14" height="36" as="geometry"/></mxCell><mxCell id="oogcSYDILuJUCikxN3u_-32" value="" style="ellipse;html=1;shape=startState;fillColor=#000000;strokeColor=none;sketch=0;fontFamily=Comic Sans MS;" parent="1" vertex="1"><mxGeometry x="335" y="179" width="17" height="17" as="geometry"/></mxCell><mxCell id="oogcSYDILuJUCikxN3u_-33" value="" style="html=1;verticalAlign=bottom;endArrow=blockThin;endSize=8;strokeColor=#000000;rounded=0;fontFamily=Comic Sans MS;sketch=0;endFill=1;entryX=1;entryY=0.75;entryDx=0;entryDy=0;exitX=0;exitY=0.75;exitDx=0;exitDy=0;" parent="1" source="oogcSYDILuJUCikxN3u_-31" target="oogcSYDILuJUCikxN3u_-28" edge="1"><mxGeometry relative="1" as="geometry"><mxPoint x="334" y="178.99999999999994" as="targetPoint"/><mxPoint x="311.69500000000005" y="179.027" as="sourcePoint"/></mxGeometry></mxCell><mxCell id="oogcSYDILuJUCikxN3u_-34" value="" style="rounded=0;whiteSpace=wrap;html=1;sketch=0;fontFamily=Comic Sans MS;" parent="1" vertex="1"><mxGeometry x="386.5" y="160" width="14" height="36" as="geometry"/></mxCell><mxCell id="oogcSYDILuJUCikxN3u_-35" value="" style="ellipse;html=1;shape=startState;fillColor=#000000;strokeColor=none;sketch=0;fontFamily=Comic Sans MS;" parent="1" vertex="1"><mxGeometry x="385" y="160" width="17" height="17" as="geometry"/></mxCell><mxCell id="oogcSYDILuJUCikxN3u_-36" value="" style="html=1;verticalAlign=bottom;endArrow=blockThin;endSize=8;strokeColor=#000000;rounded=0;fontFamily=Comic Sans MS;sketch=0;endFill=1;entryX=0;entryY=0.25;entryDx=0;entryDy=0;exitX=1.031;exitY=0.246;exitDx=0;exitDy=0;exitPerimeter=0;" parent="1" source="oogcSYDILuJUCikxN3u_-34" edge="1"><mxGeometry relative="1" as="geometry"><mxPoint x="434" y="169" as="targetPoint"/><mxPoint x="406.5" y="169" as="sourcePoint"/></mxGeometry></mxCell><mxCell id="oogcSYDILuJUCikxN3u_-40" value="" style="whiteSpace=wrap;html=1;aspect=fixed;fillColor=#000000;sketch=1;strokeColor=default;" parent="1" vertex="1"><mxGeometry x="74.5" y="160" width="36" height="36" as="geometry"/></mxCell><mxCell id="oogcSYDILuJUCikxN3u_-41" value="&lt;font face=&quot;Comic Sans MS&quot;&gt;NULL&lt;/font&gt;" style="text;html=1;align=center;verticalAlign=middle;resizable=0;points=[];autosize=1;strokeColor=none;fillColor=none;" parent="1" vertex="1"><mxGeometry x="72" y="199" width="42" height="19" as="geometry"/></mxCell><mxCell id="oogcSYDILuJUCikxN3u_-45" value="" style="rounded=0;whiteSpace=wrap;html=1;sketch=0;fontFamily=Comic Sans MS;" parent="1" vertex="1"><mxGeometry x="144" y="160" width="14" height="36" as="geometry"/></mxCell><mxCell id="oogcSYDILuJUCikxN3u_-46" value="" style="ellipse;html=1;shape=startState;fillColor=#000000;strokeColor=none;sketch=0;fontFamily=Comic Sans MS;" parent="1" vertex="1"><mxGeometry x="142.5" y="179" width="17" height="17" as="geometry"/></mxCell><mxCell id="oogcSYDILuJUCikxN3u_-47" value="" style="html=1;verticalAlign=bottom;endArrow=blockThin;endSize=8;strokeColor=#000000;rounded=0;fontFamily=Comic Sans MS;sketch=0;endFill=1;entryX=1;entryY=0.75;entryDx=0;entryDy=0;exitX=0;exitY=0.75;exitDx=0;exitDy=0;" parent="1" source="oogcSYDILuJUCikxN3u_-45" edge="1"><mxGeometry relative="1" as="geometry"><mxPoint x="110.5" y="187" as="targetPoint"/><mxPoint x="119.19500000000005" y="179.027" as="sourcePoint"/></mxGeometry></mxCell><mxCell id="oogcSYDILuJUCikxN3u_-48" value="prec" style="text;html=1;align=center;verticalAlign=middle;resizable=0;points=[];autosize=1;strokeColor=none;fillColor=none;fontFamily=Comic Sans MS;" parent="1" vertex="1"><mxGeometry x="123.5" y="199.5" width="35" height="18" as="geometry"/></mxCell><mxCell id="oogcSYDILuJUCikxN3u_-49" value="data" style="text;html=1;align=center;verticalAlign=middle;resizable=0;points=[];autosize=1;strokeColor=none;fillColor=none;fontFamily=Comic Sans MS;" parent="1" vertex="1"><mxGeometry x="158.5" y="200" width="35" height="18" as="geometry"/></mxCell><mxCell id="oogcSYDILuJUCikxN3u_-50" value="next" style="text;html=1;align=center;verticalAlign=middle;resizable=0;points=[];autosize=1;strokeColor=none;fillColor=none;fontFamily=Comic Sans MS;" parent="1" vertex="1"><mxGeometry x="193.5" y="200" width="36" height="18" as="geometry"/></mxCell></root></mxGraphModel></diagram><diagram id="8urJ98eFe8nFLvX7YsER" name="图1-4"><mxGraphModel dx="477" dy="293" grid="0" gridSize="10" guides="1" tooltips="1" connect="1" arrows="1" fold="1" page="1" pageScale="1" pageWidth="550" pageHeight="1000" math="0" shadow="0"><root><mxCell id="0"/><mxCell id="1" parent="0"/><mxCell id="4dAMpiD18mFIenZ22y8a-1" value="" style="rounded=0;whiteSpace=wrap;html=1;sketch=0;fontFamily=Comic Sans MS;" parent="1" vertex="1"><mxGeometry x="192" y="160" width="14" height="36" as="geometry"/></mxCell><mxCell id="4dAMpiD18mFIenZ22y8a-2" value="X" style="whiteSpace=wrap;html=1;aspect=fixed;fillColor=#008a00;fontColor=#ffffff;strokeColor=#000000;" parent="1" vertex="1"><mxGeometry x="156" y="160" width="36" height="36" as="geometry"/></mxCell><mxCell id="4dAMpiD18mFIenZ22y8a-3" value="Y" style="whiteSpace=wrap;html=1;aspect=fixed;fillColor=#fa6800;fontColor=#000000;strokeColor=#000000;" parent="1" vertex="1"><mxGeometry x="253.5" y="160" width="36" height="36" as="geometry"/></mxCell><mxCell id="4dAMpiD18mFIenZ22y8a-4" value="Z" style="whiteSpace=wrap;html=1;aspect=fixed;fillColor=#e3c800;fontColor=#000000;strokeColor=#000000;" parent="1" vertex="1"><mxGeometry x="350.5" y="160" width="36" height="36" as="geometry"/></mxCell><mxCell id="4dAMpiD18mFIenZ22y8a-6" value="" style="endArrow=classic;html=1;rounded=0;strokeColor=#000000;entryX=0.5;entryY=0;entryDx=0;entryDy=0;" parent="1" source="4dAMpiD18mFIenZ22y8a-7" target="4dAMpiD18mFIenZ22y8a-2" edge="1"><mxGeometry width="50" height="50" relative="1" as="geometry"><mxPoint x="203" y="125" as="sourcePoint"/><mxPoint x="323" y="65" as="targetPoint"/></mxGeometry></mxCell><mxCell id="4dAMpiD18mFIenZ22y8a-7" value="&lt;font face=&quot;Comic Sans MS&quot;&gt;Head&lt;/font&gt;" style="text;html=1;align=center;verticalAlign=middle;resizable=0;points=[];autosize=1;strokeColor=none;fillColor=none;" parent="1" vertex="1"><mxGeometry x="206" y="111" width="39" height="19" as="geometry"/></mxCell><mxCell id="4dAMpiD18mFIenZ22y8a-9" value="" style="ellipse;html=1;shape=startState;fillColor=#000000;strokeColor=none;sketch=0;fontFamily=Comic Sans MS;" parent="1" vertex="1"><mxGeometry x="190.5" y="169.5" width="17" height="17" as="geometry"/></mxCell><mxCell id="4dAMpiD18mFIenZ22y8a-10" value="" style="html=1;verticalAlign=bottom;endArrow=blockThin;endSize=8;strokeColor=#000000;rounded=0;fontFamily=Comic Sans MS;sketch=0;endFill=1;entryX=0;entryY=0.5;entryDx=0;entryDy=0;exitX=1;exitY=0.5;exitDx=0;exitDy=0;" parent="1" source="4dAMpiD18mFIenZ22y8a-1" target="4dAMpiD18mFIenZ22y8a-3" edge="1"><mxGeometry relative="1" as="geometry"><mxPoint x="239.5" y="178" as="targetPoint"/><mxPoint x="212" y="169" as="sourcePoint"/></mxGeometry></mxCell><mxCell id="4dAMpiD18mFIenZ22y8a-14" value="" style="rounded=0;whiteSpace=wrap;html=1;sketch=0;fontFamily=Comic Sans MS;" parent="1" vertex="1"><mxGeometry x="289" y="160" width="14" height="36" as="geometry"/></mxCell><mxCell id="4dAMpiD18mFIenZ22y8a-15" value="" style="ellipse;html=1;shape=startState;fillColor=#000000;strokeColor=none;sketch=0;fontFamily=Comic Sans MS;" parent="1" vertex="1"><mxGeometry x="287.5" y="169.5" width="17" height="17" as="geometry"/></mxCell><mxCell id="4dAMpiD18mFIenZ22y8a-16" value="" style="html=1;verticalAlign=bottom;endArrow=blockThin;endSize=8;strokeColor=#000000;rounded=0;fontFamily=Comic Sans MS;sketch=0;endFill=1;entryX=0;entryY=0.5;entryDx=0;entryDy=0;exitX=1;exitY=0.5;exitDx=0;exitDy=0;" parent="1" source="4dAMpiD18mFIenZ22y8a-14" target="4dAMpiD18mFIenZ22y8a-4" edge="1"><mxGeometry relative="1" as="geometry"><mxPoint x="336.5" y="178" as="targetPoint"/><mxPoint x="309" y="169" as="sourcePoint"/></mxGeometry></mxCell><mxCell id="4dAMpiD18mFIenZ22y8a-20" value="" style="rounded=0;whiteSpace=wrap;html=1;sketch=0;fontFamily=Comic Sans MS;" parent="1" vertex="1"><mxGeometry x="386.5" y="160" width="14" height="36" as="geometry"/></mxCell><mxCell id="4dAMpiD18mFIenZ22y8a-21" value="" style="ellipse;html=1;shape=startState;fillColor=#000000;strokeColor=none;sketch=0;fontFamily=Comic Sans MS;" parent="1" vertex="1"><mxGeometry x="385" y="169.5" width="17" height="17" as="geometry"/></mxCell><mxCell id="4dAMpiD18mFIenZ22y8a-29" value="data" style="text;html=1;align=center;verticalAlign=middle;resizable=0;points=[];autosize=1;strokeColor=none;fillColor=none;fontFamily=Comic Sans MS;" parent="1" vertex="1"><mxGeometry x="158.5" y="200" width="35" height="18" as="geometry"/></mxCell><mxCell id="4dAMpiD18mFIenZ22y8a-30" value="next" style="text;html=1;align=center;verticalAlign=middle;resizable=0;points=[];autosize=1;strokeColor=none;fillColor=none;fontFamily=Comic Sans MS;" parent="1" vertex="1"><mxGeometry x="193.5" y="200" width="36" height="18" as="geometry"/></mxCell><mxCell id="4dAMpiD18mFIenZ22y8a-31" value="" style="endArrow=classic;html=1;rounded=0;sketch=0;fontFamily=Comic Sans MS;strokeColor=#000000;exitX=1;exitY=0.5;exitDx=0;exitDy=0;edgeStyle=orthogonalEdgeStyle;curved=1;" parent="1" source="4dAMpiD18mFIenZ22y8a-21" target="4dAMpiD18mFIenZ22y8a-2" edge="1"><mxGeometry width="50" height="50" relative="1" as="geometry"><mxPoint x="250" y="267" as="sourcePoint"/><mxPoint x="144" y="187" as="targetPoint"/><Array as="points"><mxPoint x="419" y="178"/><mxPoint x="419" y="226"/><mxPoint x="133" y="226"/><mxPoint x="133" y="178"/></Array></mxGeometry></mxCell></root></mxGraphModel></diagram><diagram id="JgYOR6sIxhPTFzG5B6tE" name="图1-5"><mxGraphModel dx="477" dy="293" grid="0" gridSize="10" guides="1" tooltips="1" connect="1" arrows="1" fold="1" page="1" pageScale="1" pageWidth="550" pageHeight="1000" math="0" shadow="0"><root><mxCell id="0"/><mxCell id="1" parent="0"/><mxCell id="pTg2WL_EKdTLCy6lS_PC-40" value="" style="rounded=1;whiteSpace=wrap;html=1;sketch=0;fontFamily=Comic Sans MS;fillColor=none;dashed=1;arcSize=3;" parent="1" vertex="1"><mxGeometry x="32" y="75" width="177" height="70" as="geometry"/></mxCell><mxCell id="zj60yM9fTlD6rbcsAcC5-18" value="A" style="whiteSpace=wrap;html=1;aspect=fixed;fillColor=#d80073;fontColor=#ffffff;strokeColor=#A50040;" parent="1" vertex="1"><mxGeometry x="123" y="85" width="36" height="36" as="geometry"/></mxCell><mxCell id="zj60yM9fTlD6rbcsAcC5-19" value="new Node&amp;nbsp;" style="text;html=1;align=center;verticalAlign=middle;resizable=0;points=[];autosize=1;strokeColor=none;fillColor=none;fontFamily=Comic Sans MS;" parent="1" vertex="1"><mxGeometry x="209" y="101" width="68" height="18" as="geometry"/></mxCell><mxCell id="pTg2WL_EKdTLCy6lS_PC-1" value="" style="rounded=0;whiteSpace=wrap;html=1;sketch=0;fontFamily=Comic Sans MS;" parent="1" vertex="1"><mxGeometry x="238" y="161" width="14" height="36" as="geometry"/></mxCell><mxCell id="pTg2WL_EKdTLCy6lS_PC-2" value="X" style="whiteSpace=wrap;html=1;aspect=fixed;fillColor=#008a00;fontColor=#ffffff;strokeColor=#000000;" parent="1" vertex="1"><mxGeometry x="202" y="161" width="36" height="36" as="geometry"/></mxCell><mxCell id="pTg2WL_EKdTLCy6lS_PC-3" value="Y" style="whiteSpace=wrap;html=1;aspect=fixed;fillColor=#fa6800;fontColor=#000000;strokeColor=#000000;" parent="1" vertex="1"><mxGeometry x="299.5" y="161" width="36" height="36" as="geometry"/></mxCell><mxCell id="pTg2WL_EKdTLCy6lS_PC-4" value="Z" style="whiteSpace=wrap;html=1;aspect=fixed;fillColor=#e3c800;fontColor=#000000;strokeColor=#000000;" parent="1" vertex="1"><mxGeometry x="396.5" y="161" width="36" height="36" as="geometry"/></mxCell><mxCell id="pTg2WL_EKdTLCy6lS_PC-5" value="" style="whiteSpace=wrap;html=1;aspect=fixed;fillColor=#000000;sketch=1;strokeColor=default;" parent="1" vertex="1"><mxGeometry x="479.5" y="161" width="36" height="36" as="geometry"/></mxCell><mxCell id="pTg2WL_EKdTLCy6lS_PC-8" value="&lt;font face=&quot;Comic Sans MS&quot;&gt;NULL&lt;/font&gt;" style="text;html=1;align=center;verticalAlign=middle;resizable=0;points=[];autosize=1;strokeColor=none;fillColor=none;" parent="1" vertex="1"><mxGeometry x="477" y="200" width="42" height="19" as="geometry"/></mxCell><mxCell id="pTg2WL_EKdTLCy6lS_PC-9" value="" style="ellipse;html=1;shape=startState;fillColor=#000000;strokeColor=none;sketch=0;fontFamily=Comic Sans MS;" parent="1" vertex="1"><mxGeometry x="236.5" y="161" width="17" height="17" as="geometry"/></mxCell><mxCell id="pTg2WL_EKdTLCy6lS_PC-10" value="" style="html=1;verticalAlign=bottom;endArrow=blockThin;endSize=8;strokeColor=#000000;rounded=0;fontFamily=Comic Sans MS;sketch=0;endFill=1;entryX=0;entryY=0.25;entryDx=0;entryDy=0;exitX=1.031;exitY=0.246;exitDx=0;exitDy=0;exitPerimeter=0;" parent="1" source="pTg2WL_EKdTLCy6lS_PC-1" target="pTg2WL_EKdTLCy6lS_PC-11" edge="1"><mxGeometry relative="1" as="geometry"><mxPoint x="288" y="170" as="targetPoint"/><mxPoint x="258" y="170" as="sourcePoint"/></mxGeometry></mxCell><mxCell id="pTg2WL_EKdTLCy6lS_PC-11" value="" style="rounded=0;whiteSpace=wrap;html=1;sketch=0;fontFamily=Comic Sans MS;" parent="1" vertex="1"><mxGeometry x="285.5" y="161" width="14" height="36" as="geometry"/></mxCell><mxCell id="pTg2WL_EKdTLCy6lS_PC-12" value="" style="ellipse;html=1;shape=startState;fillColor=#000000;strokeColor=none;sketch=0;fontFamily=Comic Sans MS;" parent="1" vertex="1"><mxGeometry x="284" y="180" width="17" height="17" as="geometry"/></mxCell><mxCell id="pTg2WL_EKdTLCy6lS_PC-13" value="" style="html=1;verticalAlign=bottom;endArrow=blockThin;endSize=8;strokeColor=#000000;rounded=0;fontFamily=Comic Sans MS;sketch=0;endFill=1;entryX=1;entryY=0.75;entryDx=0;entryDy=0;exitX=0;exitY=0.75;exitDx=0;exitDy=0;" parent="1" source="pTg2WL_EKdTLCy6lS_PC-11" target="pTg2WL_EKdTLCy6lS_PC-1" edge="1"><mxGeometry relative="1" as="geometry"><mxPoint x="283" y="179.99999999999994" as="targetPoint"/><mxPoint x="260.69500000000005" y="180.027" as="sourcePoint"/></mxGeometry></mxCell><mxCell id="pTg2WL_EKdTLCy6lS_PC-14" value="" style="rounded=0;whiteSpace=wrap;html=1;sketch=0;fontFamily=Comic Sans MS;" parent="1" vertex="1"><mxGeometry x="335" y="161" width="14" height="36" as="geometry"/></mxCell><mxCell id="pTg2WL_EKdTLCy6lS_PC-15" value="" style="ellipse;html=1;shape=startState;fillColor=#000000;strokeColor=none;sketch=0;fontFamily=Comic Sans MS;" parent="1" vertex="1"><mxGeometry x="333.5" y="161" width="17" height="17" as="geometry"/></mxCell><mxCell id="pTg2WL_EKdTLCy6lS_PC-16" value="" style="html=1;verticalAlign=bottom;endArrow=blockThin;endSize=8;strokeColor=#000000;rounded=0;fontFamily=Comic Sans MS;sketch=0;endFill=1;entryX=0;entryY=0.25;entryDx=0;entryDy=0;exitX=1.031;exitY=0.246;exitDx=0;exitDy=0;exitPerimeter=0;" parent="1" source="pTg2WL_EKdTLCy6lS_PC-14" target="pTg2WL_EKdTLCy6lS_PC-17" edge="1"><mxGeometry relative="1" as="geometry"><mxPoint x="385" y="170" as="targetPoint"/><mxPoint x="355" y="170" as="sourcePoint"/></mxGeometry></mxCell><mxCell id="pTg2WL_EKdTLCy6lS_PC-17" value="" style="rounded=0;whiteSpace=wrap;html=1;sketch=0;fontFamily=Comic Sans MS;" parent="1" vertex="1"><mxGeometry x="382.5" y="161" width="14" height="36" as="geometry"/></mxCell><mxCell id="pTg2WL_EKdTLCy6lS_PC-18" value="" style="ellipse;html=1;shape=startState;fillColor=#000000;strokeColor=none;sketch=0;fontFamily=Comic Sans MS;" parent="1" vertex="1"><mxGeometry x="381" y="180" width="17" height="17" as="geometry"/></mxCell><mxCell id="pTg2WL_EKdTLCy6lS_PC-19" value="" style="html=1;verticalAlign=bottom;endArrow=blockThin;endSize=8;strokeColor=#000000;rounded=0;fontFamily=Comic Sans MS;sketch=0;endFill=1;entryX=1;entryY=0.75;entryDx=0;entryDy=0;exitX=0;exitY=0.75;exitDx=0;exitDy=0;" parent="1" source="pTg2WL_EKdTLCy6lS_PC-17" target="pTg2WL_EKdTLCy6lS_PC-14" edge="1"><mxGeometry relative="1" as="geometry"><mxPoint x="380" y="179.99999999999994" as="targetPoint"/><mxPoint x="357.69500000000005" y="180.027" as="sourcePoint"/></mxGeometry></mxCell><mxCell id="pTg2WL_EKdTLCy6lS_PC-20" value="" style="rounded=0;whiteSpace=wrap;html=1;sketch=0;fontFamily=Comic Sans MS;" parent="1" vertex="1"><mxGeometry x="432.5" y="161" width="14" height="36" as="geometry"/></mxCell><mxCell id="pTg2WL_EKdTLCy6lS_PC-21" value="" style="ellipse;html=1;shape=startState;fillColor=#000000;strokeColor=none;sketch=0;fontFamily=Comic Sans MS;" parent="1" vertex="1"><mxGeometry x="431" y="161" width="17" height="17" as="geometry"/></mxCell><mxCell id="pTg2WL_EKdTLCy6lS_PC-22" value="" style="html=1;verticalAlign=bottom;endArrow=blockThin;endSize=8;strokeColor=#000000;rounded=0;fontFamily=Comic Sans MS;sketch=0;endFill=1;entryX=0;entryY=0.25;entryDx=0;entryDy=0;exitX=1.031;exitY=0.246;exitDx=0;exitDy=0;exitPerimeter=0;" parent="1" source="pTg2WL_EKdTLCy6lS_PC-20" edge="1"><mxGeometry relative="1" as="geometry"><mxPoint x="480" y="170" as="targetPoint"/><mxPoint x="452.5" y="170" as="sourcePoint"/></mxGeometry></mxCell><mxCell id="pTg2WL_EKdTLCy6lS_PC-25" value="" style="rounded=0;whiteSpace=wrap;html=1;sketch=0;fontFamily=Comic Sans MS;" parent="1" vertex="1"><mxGeometry x="190" y="161" width="14" height="36" as="geometry"/></mxCell><mxCell id="pTg2WL_EKdTLCy6lS_PC-26" value="" style="ellipse;html=1;shape=startState;fillColor=#000000;strokeColor=none;sketch=0;fontFamily=Comic Sans MS;" parent="1" vertex="1"><mxGeometry x="188.5" y="180" width="17" height="17" as="geometry"/></mxCell><mxCell id="pTg2WL_EKdTLCy6lS_PC-27" value="" style="html=1;verticalAlign=bottom;endArrow=blockThin;endSize=8;strokeColor=#000000;rounded=0;fontFamily=Comic Sans MS;sketch=0;endFill=1;entryX=0.5;entryY=1;entryDx=0;entryDy=0;exitX=0;exitY=0.75;exitDx=0;exitDy=0;edgeStyle=orthogonalEdgeStyle;" parent="1" source="pTg2WL_EKdTLCy6lS_PC-25" target="pTg2WL_EKdTLCy6lS_PC-37" edge="1"><mxGeometry relative="1" as="geometry"><mxPoint x="156.5" y="188" as="targetPoint"/><mxPoint x="165.19500000000005" y="180.027" as="sourcePoint"/></mxGeometry></mxCell><mxCell id="pTg2WL_EKdTLCy6lS_PC-28" value="prec" style="text;html=1;align=center;verticalAlign=middle;resizable=0;points=[];autosize=1;strokeColor=none;fillColor=none;fontFamily=Comic Sans MS;" parent="1" vertex="1"><mxGeometry x="169.5" y="200.5" width="35" height="18" as="geometry"/></mxCell><mxCell id="pTg2WL_EKdTLCy6lS_PC-29" value="data" style="text;html=1;align=center;verticalAlign=middle;resizable=0;points=[];autosize=1;strokeColor=none;fillColor=none;fontFamily=Comic Sans MS;" parent="1" vertex="1"><mxGeometry x="204.5" y="201" width="35" height="18" as="geometry"/></mxCell><mxCell id="pTg2WL_EKdTLCy6lS_PC-30" value="next" style="text;html=1;align=center;verticalAlign=middle;resizable=0;points=[];autosize=1;strokeColor=none;fillColor=none;fontFamily=Comic Sans MS;" parent="1" vertex="1"><mxGeometry x="239.5" y="201" width="36" height="18" as="geometry"/></mxCell><mxCell id="pTg2WL_EKdTLCy6lS_PC-31" value="" style="whiteSpace=wrap;html=1;aspect=fixed;fillColor=#000000;sketch=1;strokeColor=default;" parent="1" vertex="1"><mxGeometry x="40.5" y="85" width="36" height="36" as="geometry"/></mxCell><mxCell id="pTg2WL_EKdTLCy6lS_PC-32" value="&lt;font face=&quot;Comic Sans MS&quot;&gt;NULL&lt;/font&gt;" style="text;html=1;align=center;verticalAlign=middle;resizable=0;points=[];autosize=1;strokeColor=none;fillColor=none;" parent="1" vertex="1"><mxGeometry x="38" y="124" width="42" height="19" as="geometry"/></mxCell><mxCell id="pTg2WL_EKdTLCy6lS_PC-33" value="" style="rounded=0;whiteSpace=wrap;html=1;sketch=0;fontFamily=Comic Sans MS;" parent="1" vertex="1"><mxGeometry x="110" y="85" width="14" height="36" as="geometry"/></mxCell><mxCell id="pTg2WL_EKdTLCy6lS_PC-34" value="" style="ellipse;html=1;shape=startState;fillColor=#000000;strokeColor=none;sketch=0;fontFamily=Comic Sans MS;" parent="1" vertex="1"><mxGeometry x="108.5" y="104" width="17" height="17" as="geometry"/></mxCell><mxCell id="pTg2WL_EKdTLCy6lS_PC-35" value="" style="html=1;verticalAlign=bottom;endArrow=blockThin;endSize=8;strokeColor=#000000;rounded=0;fontFamily=Comic Sans MS;sketch=0;endFill=1;entryX=1;entryY=0.75;entryDx=0;entryDy=0;exitX=0;exitY=0.75;exitDx=0;exitDy=0;" parent="1" source="pTg2WL_EKdTLCy6lS_PC-33" edge="1"><mxGeometry relative="1" as="geometry"><mxPoint x="76.5" y="112" as="targetPoint"/><mxPoint x="85.19500000000005" y="104.02699999999999" as="sourcePoint"/></mxGeometry></mxCell><mxCell id="pTg2WL_EKdTLCy6lS_PC-36" value="prec" style="text;html=1;align=center;verticalAlign=middle;resizable=0;points=[];autosize=1;strokeColor=none;fillColor=none;fontFamily=Comic Sans MS;" parent="1" vertex="1"><mxGeometry x="89.5" y="124.5" width="35" height="18" as="geometry"/></mxCell><mxCell id="pTg2WL_EKdTLCy6lS_PC-39" style="edgeStyle=orthogonalEdgeStyle;rounded=0;sketch=0;orthogonalLoop=1;jettySize=auto;html=1;exitX=1;exitY=0.25;exitDx=0;exitDy=0;entryX=0.5;entryY=0;entryDx=0;entryDy=0;fontFamily=Comic Sans MS;endArrow=blockThin;endFill=1;strokeColor=#000000;" parent="1" source="pTg2WL_EKdTLCy6lS_PC-37" target="pTg2WL_EKdTLCy6lS_PC-25" edge="1"><mxGeometry relative="1" as="geometry"/></mxCell><mxCell id="pTg2WL_EKdTLCy6lS_PC-37" value="" style="rounded=0;whiteSpace=wrap;html=1;sketch=0;fontFamily=Comic Sans MS;" parent="1" vertex="1"><mxGeometry x="159" y="85" width="14" height="36" as="geometry"/></mxCell><mxCell id="pTg2WL_EKdTLCy6lS_PC-38" value="" style="ellipse;html=1;shape=startState;fillColor=#000000;strokeColor=none;sketch=0;fontFamily=Comic Sans MS;" parent="1" vertex="1"><mxGeometry x="157.5" y="85" width="17" height="17" as="geometry"/></mxCell></root></mxGraphModel></diagram><diagram id="Rxe-Qqow-APBI7zNEmas" name="图1-6"><mxGraphModel dx="477" dy="293" grid="0" gridSize="10" guides="1" tooltips="1" connect="1" arrows="1" fold="1" page="0" pageScale="1" pageWidth="550" pageHeight="1000" math="0" shadow="0"><root><mxCell id="0"/><mxCell id="1" parent="0"/><mxCell id="ypn63TIZtG_B0qElN_GI-1" value="" style="rounded=0;whiteSpace=wrap;html=1;sketch=0;fontFamily=Comic Sans MS;" parent="1" vertex="1"><mxGeometry x="121" y="202" width="14" height="36" as="geometry"/></mxCell><mxCell id="ypn63TIZtG_B0qElN_GI-2" value="X" style="whiteSpace=wrap;html=1;aspect=fixed;fillColor=#008a00;fontColor=#ffffff;strokeColor=#000000;" parent="1" vertex="1"><mxGeometry x="85" y="202" width="36" height="36" as="geometry"/></mxCell><mxCell id="ypn63TIZtG_B0qElN_GI-3" value="Y" style="whiteSpace=wrap;html=1;aspect=fixed;fillColor=#fa6800;fontColor=#000000;strokeColor=#000000;" parent="1" vertex="1"><mxGeometry x="182.5" y="202" width="36" height="36" as="geometry"/></mxCell><mxCell id="ypn63TIZtG_B0qElN_GI-4" value="Z" style="whiteSpace=wrap;html=1;aspect=fixed;fillColor=#e3c800;fontColor=#000000;strokeColor=#000000;" parent="1" vertex="1"><mxGeometry x="279.5" y="202" width="36" height="36" as="geometry"/></mxCell><mxCell id="ypn63TIZtG_B0qElN_GI-5" value="" style="endArrow=classic;html=1;rounded=0;strokeColor=#000000;entryX=0.5;entryY=0;entryDx=0;entryDy=0;" parent="1" source="ypn63TIZtG_B0qElN_GI-6" target="ypn63TIZtG_B0qElN_GI-2" edge="1"><mxGeometry width="50" height="50" relative="1" as="geometry"><mxPoint x="132" y="167" as="sourcePoint"/><mxPoint x="252" y="107" as="targetPoint"/></mxGeometry></mxCell><mxCell id="ypn63TIZtG_B0qElN_GI-6" value="&lt;font face=&quot;Comic Sans MS&quot;&gt;Head&lt;/font&gt;" style="text;html=1;align=center;verticalAlign=middle;resizable=0;points=[];autosize=1;strokeColor=none;fillColor=none;" parent="1" vertex="1"><mxGeometry x="135" y="153" width="39" height="19" as="geometry"/></mxCell><mxCell id="ypn63TIZtG_B0qElN_GI-7" value="" style="ellipse;html=1;shape=startState;fillColor=#000000;strokeColor=none;sketch=0;fontFamily=Comic Sans MS;" parent="1" vertex="1"><mxGeometry x="119.5" y="202" width="17" height="17" as="geometry"/></mxCell><mxCell id="ypn63TIZtG_B0qElN_GI-8" value="" style="html=1;verticalAlign=bottom;endArrow=blockThin;endSize=8;strokeColor=#000000;rounded=0;fontFamily=Comic Sans MS;sketch=0;endFill=1;entryX=0;entryY=0.25;entryDx=0;entryDy=0;exitX=1.031;exitY=0.246;exitDx=0;exitDy=0;exitPerimeter=0;" parent="1" source="ypn63TIZtG_B0qElN_GI-1" target="ypn63TIZtG_B0qElN_GI-9" edge="1"><mxGeometry relative="1" as="geometry"><mxPoint x="171" y="211" as="targetPoint"/><mxPoint x="141" y="211" as="sourcePoint"/></mxGeometry></mxCell><mxCell id="ypn63TIZtG_B0qElN_GI-9" value="" style="rounded=0;whiteSpace=wrap;html=1;sketch=0;fontFamily=Comic Sans MS;" parent="1" vertex="1"><mxGeometry x="168.5" y="202" width="14" height="36" as="geometry"/></mxCell><mxCell id="ypn63TIZtG_B0qElN_GI-10" value="" style="ellipse;html=1;shape=startState;fillColor=#000000;strokeColor=none;sketch=0;fontFamily=Comic Sans MS;" parent="1" vertex="1"><mxGeometry x="167" y="221" width="17" height="17" as="geometry"/></mxCell><mxCell id="ypn63TIZtG_B0qElN_GI-11" value="" style="html=1;verticalAlign=bottom;endArrow=blockThin;endSize=8;strokeColor=#000000;rounded=0;fontFamily=Comic Sans MS;sketch=0;endFill=1;entryX=1;entryY=0.75;entryDx=0;entryDy=0;exitX=0;exitY=0.75;exitDx=0;exitDy=0;" parent="1" source="ypn63TIZtG_B0qElN_GI-9" target="ypn63TIZtG_B0qElN_GI-1" edge="1"><mxGeometry relative="1" as="geometry"><mxPoint x="166" y="220.99999999999994" as="targetPoint"/><mxPoint x="143.69500000000005" y="221.027" as="sourcePoint"/></mxGeometry></mxCell><mxCell id="ypn63TIZtG_B0qElN_GI-12" value="" style="rounded=0;whiteSpace=wrap;html=1;sketch=0;fontFamily=Comic Sans MS;" parent="1" vertex="1"><mxGeometry x="218" y="202" width="14" height="36" as="geometry"/></mxCell><mxCell id="ypn63TIZtG_B0qElN_GI-13" value="" style="ellipse;html=1;shape=startState;fillColor=#000000;strokeColor=none;sketch=0;fontFamily=Comic Sans MS;" parent="1" vertex="1"><mxGeometry x="216.5" y="202" width="17" height="17" as="geometry"/></mxCell><mxCell id="ypn63TIZtG_B0qElN_GI-14" value="" style="html=1;verticalAlign=bottom;endArrow=blockThin;endSize=8;strokeColor=#000000;rounded=0;fontFamily=Comic Sans MS;sketch=0;endFill=1;entryX=0;entryY=0.25;entryDx=0;entryDy=0;exitX=1.031;exitY=0.246;exitDx=0;exitDy=0;exitPerimeter=0;" parent="1" source="ypn63TIZtG_B0qElN_GI-12" target="ypn63TIZtG_B0qElN_GI-15" edge="1"><mxGeometry relative="1" as="geometry"><mxPoint x="268" y="211" as="targetPoint"/><mxPoint x="238" y="211" as="sourcePoint"/></mxGeometry></mxCell><mxCell id="ypn63TIZtG_B0qElN_GI-15" value="" style="rounded=0;whiteSpace=wrap;html=1;sketch=0;fontFamily=Comic Sans MS;" parent="1" vertex="1"><mxGeometry x="265.5" y="202" width="14" height="36" as="geometry"/></mxCell><mxCell id="ypn63TIZtG_B0qElN_GI-16" value="" style="ellipse;html=1;shape=startState;fillColor=#000000;strokeColor=none;sketch=0;fontFamily=Comic Sans MS;" parent="1" vertex="1"><mxGeometry x="264" y="221" width="17" height="17" as="geometry"/></mxCell><mxCell id="ypn63TIZtG_B0qElN_GI-17" value="" style="html=1;verticalAlign=bottom;endArrow=blockThin;endSize=8;strokeColor=#000000;rounded=0;fontFamily=Comic Sans MS;sketch=0;endFill=1;entryX=1;entryY=0.75;entryDx=0;entryDy=0;exitX=0;exitY=0.75;exitDx=0;exitDy=0;" parent="1" source="ypn63TIZtG_B0qElN_GI-15" target="ypn63TIZtG_B0qElN_GI-12" edge="1"><mxGeometry relative="1" as="geometry"><mxPoint x="263" y="220.99999999999994" as="targetPoint"/><mxPoint x="240.69500000000005" y="221.027" as="sourcePoint"/></mxGeometry></mxCell><mxCell id="ypn63TIZtG_B0qElN_GI-18" value="" style="rounded=0;whiteSpace=wrap;html=1;sketch=0;fontFamily=Comic Sans MS;" parent="1" vertex="1"><mxGeometry x="315.5" y="202" width="14" height="36" as="geometry"/></mxCell><mxCell id="ypn63TIZtG_B0qElN_GI-19" value="" style="ellipse;html=1;shape=startState;fillColor=#000000;strokeColor=none;sketch=0;fontFamily=Comic Sans MS;" parent="1" vertex="1"><mxGeometry x="314" y="202" width="17" height="17" as="geometry"/></mxCell><mxCell id="ypn63TIZtG_B0qElN_GI-20" value="" style="html=1;verticalAlign=bottom;endArrow=blockThin;endSize=8;strokeColor=#000000;rounded=0;fontFamily=Comic Sans MS;sketch=0;endFill=1;entryX=0.5;entryY=0;entryDx=0;entryDy=0;exitX=1.031;exitY=0.246;exitDx=0;exitDy=0;exitPerimeter=0;edgeStyle=orthogonalEdgeStyle;" parent="1" source="ypn63TIZtG_B0qElN_GI-18" target="7GkTHG86c0uW9ExptL8K-6" edge="1"><mxGeometry relative="1" as="geometry"><mxPoint x="363" y="211" as="targetPoint"/><mxPoint x="335.5" y="211" as="sourcePoint"/></mxGeometry></mxCell><mxCell id="ypn63TIZtG_B0qElN_GI-21" value="" style="whiteSpace=wrap;html=1;aspect=fixed;fillColor=#000000;sketch=1;strokeColor=default;" parent="1" vertex="1"><mxGeometry x="3.5" y="202" width="36" height="36" as="geometry"/></mxCell><mxCell id="ypn63TIZtG_B0qElN_GI-22" value="&lt;font face=&quot;Comic Sans MS&quot;&gt;NULL&lt;/font&gt;" style="text;html=1;align=center;verticalAlign=middle;resizable=0;points=[];autosize=1;strokeColor=none;fillColor=none;" parent="1" vertex="1"><mxGeometry x="1" y="241" width="42" height="19" as="geometry"/></mxCell><mxCell id="ypn63TIZtG_B0qElN_GI-23" value="" style="rounded=0;whiteSpace=wrap;html=1;sketch=0;fontFamily=Comic Sans MS;" parent="1" vertex="1"><mxGeometry x="73" y="202" width="14" height="36" as="geometry"/></mxCell><mxCell id="ypn63TIZtG_B0qElN_GI-24" value="" style="ellipse;html=1;shape=startState;fillColor=#000000;strokeColor=none;sketch=0;fontFamily=Comic Sans MS;" parent="1" vertex="1"><mxGeometry x="71.5" y="221" width="17" height="17" as="geometry"/></mxCell><mxCell id="ypn63TIZtG_B0qElN_GI-25" value="" style="html=1;verticalAlign=bottom;endArrow=blockThin;endSize=8;strokeColor=#000000;rounded=0;fontFamily=Comic Sans MS;sketch=0;endFill=1;entryX=1;entryY=0.75;entryDx=0;entryDy=0;exitX=0;exitY=0.75;exitDx=0;exitDy=0;" parent="1" source="ypn63TIZtG_B0qElN_GI-23" edge="1"><mxGeometry relative="1" as="geometry"><mxPoint x="39.5" y="229" as="targetPoint"/><mxPoint x="48.19500000000005" y="221.027" as="sourcePoint"/></mxGeometry></mxCell><mxCell id="ypn63TIZtG_B0qElN_GI-26" value="prec" style="text;html=1;align=center;verticalAlign=middle;resizable=0;points=[];autosize=1;strokeColor=none;fillColor=none;fontFamily=Comic Sans MS;" parent="1" vertex="1"><mxGeometry x="52.5" y="241.5" width="35" height="18" as="geometry"/></mxCell><mxCell id="ypn63TIZtG_B0qElN_GI-27" value="data" style="text;html=1;align=center;verticalAlign=middle;resizable=0;points=[];autosize=1;strokeColor=none;fillColor=none;fontFamily=Comic Sans MS;" parent="1" vertex="1"><mxGeometry x="87.5" y="242" width="35" height="18" as="geometry"/></mxCell><mxCell id="ypn63TIZtG_B0qElN_GI-28" value="next" style="text;html=1;align=center;verticalAlign=middle;resizable=0;points=[];autosize=1;strokeColor=none;fillColor=none;fontFamily=Comic Sans MS;" parent="1" vertex="1"><mxGeometry x="122.5" y="242" width="36" height="18" as="geometry"/></mxCell><mxCell id="7GkTHG86c0uW9ExptL8K-1" value="" style="rounded=1;whiteSpace=wrap;html=1;sketch=0;fontFamily=Comic Sans MS;fillColor=none;dashed=1;arcSize=3;" parent="1" vertex="1"><mxGeometry x="335" y="261" width="153" height="75" as="geometry"/></mxCell><mxCell id="7GkTHG86c0uW9ExptL8K-2" value="Z" style="whiteSpace=wrap;html=1;aspect=fixed;fillColor=#d80073;fontColor=#ffffff;strokeColor=#A50040;" parent="1" vertex="1"><mxGeometry x="361" y="276" width="36" height="36" as="geometry"/></mxCell><mxCell id="7GkTHG86c0uW9ExptL8K-3" value="new Node&amp;nbsp;" style="text;html=1;align=center;verticalAlign=middle;resizable=0;points=[];autosize=1;strokeColor=none;fillColor=none;fontFamily=Comic Sans MS;" parent="1" vertex="1"><mxGeometry x="457" y="9" width="68" height="18" as="geometry"/></mxCell><mxCell id="7GkTHG86c0uW9ExptL8K-4" value="" style="whiteSpace=wrap;html=1;aspect=fixed;fillColor=#000000;sketch=1;strokeColor=default;" parent="1" vertex="1"><mxGeometry x="443" y="276" width="36" height="36" as="geometry"/></mxCell><mxCell id="AS89FRN9GAchwq1wT1PX-4" style="edgeStyle=orthogonalEdgeStyle;rounded=0;sketch=0;orthogonalLoop=1;jettySize=auto;html=1;exitX=0;exitY=0.75;exitDx=0;exitDy=0;entryX=0.5;entryY=1;entryDx=0;entryDy=0;fontFamily=Comic Sans MS;endArrow=blockThin;endFill=1;strokeColor=#000000;" parent="1" source="7GkTHG86c0uW9ExptL8K-6" target="ypn63TIZtG_B0qElN_GI-18" edge="1"><mxGeometry relative="1" as="geometry"/></mxCell><mxCell id="7GkTHG86c0uW9ExptL8K-6" value="" style="rounded=0;whiteSpace=wrap;html=1;sketch=0;fontFamily=Comic Sans MS;" parent="1" vertex="1"><mxGeometry x="348" y="276" width="14" height="36" as="geometry"/></mxCell><mxCell id="7GkTHG86c0uW9ExptL8K-7" value="" style="ellipse;html=1;shape=startState;fillColor=#000000;strokeColor=none;sketch=0;fontFamily=Comic Sans MS;" parent="1" vertex="1"><mxGeometry x="346.5" y="295" width="17" height="17" as="geometry"/></mxCell><mxCell id="7GkTHG86c0uW9ExptL8K-10" value="" style="rounded=0;whiteSpace=wrap;html=1;sketch=0;fontFamily=Comic Sans MS;" parent="1" vertex="1"><mxGeometry x="397" y="276" width="14" height="36" as="geometry"/></mxCell><mxCell id="AS89FRN9GAchwq1wT1PX-3" style="rounded=0;sketch=0;orthogonalLoop=1;jettySize=auto;html=1;exitX=1;exitY=0.5;exitDx=0;exitDy=0;entryX=0;entryY=0.25;entryDx=0;entryDy=0;fontFamily=Comic Sans MS;endArrow=blockThin;endFill=1;strokeColor=#000000;" parent="1" source="7GkTHG86c0uW9ExptL8K-11" target="7GkTHG86c0uW9ExptL8K-4" edge="1"><mxGeometry relative="1" as="geometry"/></mxCell><mxCell id="7GkTHG86c0uW9ExptL8K-11" value="" style="ellipse;html=1;shape=startState;fillColor=#000000;strokeColor=none;sketch=0;fontFamily=Comic Sans MS;" parent="1" vertex="1"><mxGeometry x="395.5" y="276" width="17" height="17" as="geometry"/></mxCell><mxCell id="AS89FRN9GAchwq1wT1PX-1" value="&lt;font face=&quot;Comic Sans MS&quot;&gt;NULL&lt;/font&gt;" style="text;html=1;align=center;verticalAlign=middle;resizable=0;points=[];autosize=1;strokeColor=none;fillColor=none;" parent="1" vertex="1"><mxGeometry x="440" y="317" width="42" height="19" as="geometry"/></mxCell><mxCell id="AS89FRN9GAchwq1wT1PX-2" value="next" style="text;html=1;align=center;verticalAlign=middle;resizable=0;points=[];autosize=1;strokeColor=none;fillColor=none;fontFamily=Comic Sans MS;" parent="1" vertex="1"><mxGeometry x="362" y="317" width="36" height="18" as="geometry"/></mxCell><mxCell id="duShUYPn89Jn4OH2FlAH-1" value="new Node&amp;nbsp;" style="text;html=1;align=center;verticalAlign=middle;resizable=0;points=[];autosize=1;strokeColor=none;fillColor=none;fontFamily=Comic Sans MS;" parent="1" vertex="1"><mxGeometry x="488" y="289.5" width="68" height="18" as="geometry"/></mxCell></root></mxGraphModel></diagram><diagram id="89ThWne87okpr7M7s6Cn" name="图1-7"><mxGraphModel dx="477" dy="293" grid="0" gridSize="10" guides="1" tooltips="1" connect="1" arrows="1" fold="1" page="1" pageScale="1" pageWidth="550" pageHeight="1000" math="0" shadow="0"><root><mxCell id="0"/><mxCell id="1" parent="0"/><mxCell id="pm2CjwcTEOBfR_-0ns25-61" style="rounded=0;sketch=0;orthogonalLoop=1;jettySize=auto;html=1;exitX=1;exitY=0.25;exitDx=0;exitDy=0;entryX=0;entryY=0.25;entryDx=0;entryDy=0;fontFamily=Comic Sans MS;endArrow=blockThin;endFill=1;strokeColor=#CC0000;dashed=1;" parent="1" source="pm2CjwcTEOBfR_-0ns25-1" target="pm2CjwcTEOBfR_-0ns25-17" edge="1"><mxGeometry relative="1" as="geometry"/></mxCell><mxCell id="pm2CjwcTEOBfR_-0ns25-1" value="" style="rounded=0;whiteSpace=wrap;html=1;sketch=0;fontFamily=Comic Sans MS;" parent="1" vertex="1"><mxGeometry x="192" y="160" width="14" height="36" as="geometry"/></mxCell><mxCell id="pm2CjwcTEOBfR_-0ns25-2" value="X" style="whiteSpace=wrap;html=1;aspect=fixed;fillColor=#008a00;fontColor=#ffffff;strokeColor=#000000;" parent="1" vertex="1"><mxGeometry x="156" y="160" width="36" height="36" as="geometry"/></mxCell><mxCell id="pm2CjwcTEOBfR_-0ns25-3" value="Y" style="whiteSpace=wrap;html=1;aspect=fixed;fillColor=#fa6800;fontColor=#000000;strokeColor=#000000;" parent="1" vertex="1"><mxGeometry x="253.5" y="240" width="36" height="36" as="geometry"/></mxCell><mxCell id="pm2CjwcTEOBfR_-0ns25-4" value="Z" style="whiteSpace=wrap;html=1;aspect=fixed;fillColor=#e3c800;fontColor=#000000;strokeColor=#000000;" parent="1" vertex="1"><mxGeometry x="350.5" y="160" width="36" height="36" as="geometry"/></mxCell><mxCell id="pm2CjwcTEOBfR_-0ns25-5" value="" style="whiteSpace=wrap;html=1;aspect=fixed;fillColor=#000000;sketch=1;strokeColor=default;" parent="1" vertex="1"><mxGeometry x="433.5" y="160" width="36" height="36" as="geometry"/></mxCell><mxCell id="pm2CjwcTEOBfR_-0ns25-6" value="" style="endArrow=classic;html=1;rounded=0;strokeColor=#000000;entryX=0.5;entryY=0;entryDx=0;entryDy=0;" parent="1" source="pm2CjwcTEOBfR_-0ns25-7" target="pm2CjwcTEOBfR_-0ns25-2" edge="1"><mxGeometry width="50" height="50" relative="1" as="geometry"><mxPoint x="203" y="125" as="sourcePoint"/><mxPoint x="323" y="65" as="targetPoint"/></mxGeometry></mxCell><mxCell id="pm2CjwcTEOBfR_-0ns25-7" value="&lt;font face=&quot;Comic Sans MS&quot;&gt;Head&lt;/font&gt;" style="text;html=1;align=center;verticalAlign=middle;resizable=0;points=[];autosize=1;strokeColor=none;fillColor=none;" parent="1" vertex="1"><mxGeometry x="206" y="111" width="39" height="19" as="geometry"/></mxCell><mxCell id="pm2CjwcTEOBfR_-0ns25-8" value="&lt;font face=&quot;Comic Sans MS&quot;&gt;NULL&lt;/font&gt;" style="text;html=1;align=center;verticalAlign=middle;resizable=0;points=[];autosize=1;strokeColor=none;fillColor=none;" parent="1" vertex="1"><mxGeometry x="431" y="199" width="42" height="19" as="geometry"/></mxCell><mxCell id="pm2CjwcTEOBfR_-0ns25-9" value="" style="ellipse;html=1;shape=startState;fillColor=#000000;strokeColor=none;sketch=0;fontFamily=Comic Sans MS;" parent="1" vertex="1"><mxGeometry x="190.5" y="160" width="17" height="17" as="geometry"/></mxCell><mxCell id="pm2CjwcTEOBfR_-0ns25-10" value="" style="html=1;verticalAlign=bottom;endArrow=blockThin;endSize=8;strokeColor=#000000;rounded=0;fontFamily=Comic Sans MS;sketch=0;endFill=1;entryX=0;entryY=0.25;entryDx=0;entryDy=0;exitX=1.031;exitY=0.246;exitDx=0;exitDy=0;exitPerimeter=0;" parent="1" source="pm2CjwcTEOBfR_-0ns25-1" target="pm2CjwcTEOBfR_-0ns25-11" edge="1"><mxGeometry relative="1" as="geometry"><mxPoint x="242" y="169" as="targetPoint"/><mxPoint x="212" y="169" as="sourcePoint"/></mxGeometry></mxCell><mxCell id="pm2CjwcTEOBfR_-0ns25-11" value="" style="rounded=0;whiteSpace=wrap;html=1;sketch=0;fontFamily=Comic Sans MS;" parent="1" vertex="1"><mxGeometry x="239.5" y="240" width="14" height="36" as="geometry"/></mxCell><mxCell id="pm2CjwcTEOBfR_-0ns25-12" value="" style="ellipse;html=1;shape=startState;fillColor=#000000;strokeColor=none;sketch=0;fontFamily=Comic Sans MS;" parent="1" vertex="1"><mxGeometry x="238" y="259" width="17" height="17" as="geometry"/></mxCell><mxCell id="pm2CjwcTEOBfR_-0ns25-13" value="" style="html=1;verticalAlign=bottom;endArrow=blockThin;endSize=8;strokeColor=#000000;rounded=0;fontFamily=Comic Sans MS;sketch=0;endFill=1;entryX=1;entryY=0.75;entryDx=0;entryDy=0;exitX=0;exitY=0.75;exitDx=0;exitDy=0;" parent="1" source="pm2CjwcTEOBfR_-0ns25-11" target="pm2CjwcTEOBfR_-0ns25-1" edge="1"><mxGeometry relative="1" as="geometry"><mxPoint x="237" y="178.99999999999994" as="targetPoint"/><mxPoint x="214.69500000000005" y="179.027" as="sourcePoint"/></mxGeometry></mxCell><mxCell id="pm2CjwcTEOBfR_-0ns25-14" value="" style="rounded=0;whiteSpace=wrap;html=1;sketch=0;fontFamily=Comic Sans MS;" parent="1" vertex="1"><mxGeometry x="289" y="240" width="14" height="36" as="geometry"/></mxCell><mxCell id="pm2CjwcTEOBfR_-0ns25-15" value="" style="ellipse;html=1;shape=startState;fillColor=#000000;strokeColor=none;sketch=0;fontFamily=Comic Sans MS;" parent="1" vertex="1"><mxGeometry x="287.5" y="240" width="17" height="17" as="geometry"/></mxCell><mxCell id="pm2CjwcTEOBfR_-0ns25-16" value="" style="html=1;verticalAlign=bottom;endArrow=blockThin;endSize=8;strokeColor=#000000;rounded=0;fontFamily=Comic Sans MS;sketch=0;endFill=1;entryX=0;entryY=0.25;entryDx=0;entryDy=0;exitX=1.031;exitY=0.246;exitDx=0;exitDy=0;exitPerimeter=0;" parent="1" source="pm2CjwcTEOBfR_-0ns25-14" target="pm2CjwcTEOBfR_-0ns25-17" edge="1"><mxGeometry relative="1" as="geometry"><mxPoint x="339" y="169" as="targetPoint"/><mxPoint x="309" y="169" as="sourcePoint"/></mxGeometry></mxCell><mxCell id="pm2CjwcTEOBfR_-0ns25-62" style="edgeStyle=none;rounded=0;sketch=0;orthogonalLoop=1;jettySize=auto;html=1;exitX=0;exitY=0.75;exitDx=0;exitDy=0;entryX=1;entryY=0.75;entryDx=0;entryDy=0;dashed=1;fontFamily=Comic Sans MS;endArrow=blockThin;endFill=1;strokeColor=#CC0000;" parent="1" source="pm2CjwcTEOBfR_-0ns25-17" target="pm2CjwcTEOBfR_-0ns25-1" edge="1"><mxGeometry relative="1" as="geometry"/></mxCell><mxCell id="pm2CjwcTEOBfR_-0ns25-17" value="" style="rounded=0;whiteSpace=wrap;html=1;sketch=0;fontFamily=Comic Sans MS;" parent="1" vertex="1"><mxGeometry x="336.5" y="160" width="14" height="36" as="geometry"/></mxCell><mxCell id="pm2CjwcTEOBfR_-0ns25-18" value="" style="ellipse;html=1;shape=startState;fillColor=#000000;strokeColor=none;sketch=0;fontFamily=Comic Sans MS;" parent="1" vertex="1"><mxGeometry x="335" y="179" width="17" height="17" as="geometry"/></mxCell><mxCell id="pm2CjwcTEOBfR_-0ns25-19" value="" style="html=1;verticalAlign=bottom;endArrow=blockThin;endSize=8;strokeColor=#000000;rounded=0;fontFamily=Comic Sans MS;sketch=0;endFill=1;entryX=1;entryY=0.75;entryDx=0;entryDy=0;exitX=0;exitY=0.75;exitDx=0;exitDy=0;" parent="1" source="pm2CjwcTEOBfR_-0ns25-17" target="pm2CjwcTEOBfR_-0ns25-14" edge="1"><mxGeometry relative="1" as="geometry"><mxPoint x="334" y="178.99999999999994" as="targetPoint"/><mxPoint x="311.69500000000005" y="179.027" as="sourcePoint"/></mxGeometry></mxCell><mxCell id="pm2CjwcTEOBfR_-0ns25-20" value="" style="rounded=0;whiteSpace=wrap;html=1;sketch=0;fontFamily=Comic Sans MS;" parent="1" vertex="1"><mxGeometry x="386.5" y="160" width="14" height="36" as="geometry"/></mxCell><mxCell id="pm2CjwcTEOBfR_-0ns25-21" value="" style="ellipse;html=1;shape=startState;fillColor=#000000;strokeColor=none;sketch=0;fontFamily=Comic Sans MS;" parent="1" vertex="1"><mxGeometry x="385" y="160" width="17" height="17" as="geometry"/></mxCell><mxCell id="pm2CjwcTEOBfR_-0ns25-22" value="" style="html=1;verticalAlign=bottom;endArrow=blockThin;endSize=8;strokeColor=#000000;rounded=0;fontFamily=Comic Sans MS;sketch=0;endFill=1;entryX=0;entryY=0.25;entryDx=0;entryDy=0;exitX=1.031;exitY=0.246;exitDx=0;exitDy=0;exitPerimeter=0;" parent="1" source="pm2CjwcTEOBfR_-0ns25-20" edge="1"><mxGeometry relative="1" as="geometry"><mxPoint x="434" y="169" as="targetPoint"/><mxPoint x="406.5" y="169" as="sourcePoint"/></mxGeometry></mxCell><mxCell id="pm2CjwcTEOBfR_-0ns25-23" value="" style="whiteSpace=wrap;html=1;aspect=fixed;fillColor=#000000;sketch=1;strokeColor=default;" parent="1" vertex="1"><mxGeometry x="74.5" y="160" width="36" height="36" as="geometry"/></mxCell><mxCell id="pm2CjwcTEOBfR_-0ns25-24" value="&lt;font face=&quot;Comic Sans MS&quot;&gt;NULL&lt;/font&gt;" style="text;html=1;align=center;verticalAlign=middle;resizable=0;points=[];autosize=1;strokeColor=none;fillColor=none;" parent="1" vertex="1"><mxGeometry x="72" y="199" width="42" height="19" as="geometry"/></mxCell><mxCell id="pm2CjwcTEOBfR_-0ns25-25" value="" style="rounded=0;whiteSpace=wrap;html=1;sketch=0;fontFamily=Comic Sans MS;" parent="1" vertex="1"><mxGeometry x="144" y="160" width="14" height="36" as="geometry"/></mxCell><mxCell id="pm2CjwcTEOBfR_-0ns25-26" value="" style="ellipse;html=1;shape=startState;fillColor=#000000;strokeColor=none;sketch=0;fontFamily=Comic Sans MS;" parent="1" vertex="1"><mxGeometry x="142.5" y="179" width="17" height="17" as="geometry"/></mxCell><mxCell id="pm2CjwcTEOBfR_-0ns25-27" value="" style="html=1;verticalAlign=bottom;endArrow=blockThin;endSize=8;strokeColor=#000000;rounded=0;fontFamily=Comic Sans MS;sketch=0;endFill=1;entryX=1;entryY=0.75;entryDx=0;entryDy=0;exitX=0;exitY=0.75;exitDx=0;exitDy=0;" parent="1" source="pm2CjwcTEOBfR_-0ns25-25" edge="1"><mxGeometry relative="1" as="geometry"><mxPoint x="110.5" y="187" as="targetPoint"/><mxPoint x="119.19500000000005" y="179.027" as="sourcePoint"/></mxGeometry></mxCell><mxCell id="pm2CjwcTEOBfR_-0ns25-28" value="prec" style="text;html=1;align=center;verticalAlign=middle;resizable=0;points=[];autosize=1;strokeColor=none;fillColor=none;fontFamily=Comic Sans MS;" parent="1" vertex="1"><mxGeometry x="123.5" y="199.5" width="35" height="18" as="geometry"/></mxCell><mxCell id="pm2CjwcTEOBfR_-0ns25-29" value="data" style="text;html=1;align=center;verticalAlign=middle;resizable=0;points=[];autosize=1;strokeColor=none;fillColor=none;fontFamily=Comic Sans MS;" parent="1" vertex="1"><mxGeometry x="158.5" y="200" width="35" height="18" as="geometry"/></mxCell><mxCell id="pm2CjwcTEOBfR_-0ns25-30" value="next" style="text;html=1;align=center;verticalAlign=middle;resizable=0;points=[];autosize=1;strokeColor=none;fillColor=none;fontFamily=Comic Sans MS;" parent="1" vertex="1"><mxGeometry x="193.5" y="200" width="36" height="18" as="geometry"/></mxCell><mxCell id="pm2CjwcTEOBfR_-0ns25-64" value="&lt;font style=&quot;font-size: 35px;&quot;&gt;拆&lt;/font&gt;" style="text;html=1;align=center;verticalAlign=middle;resizable=0;points=[];autosize=1;strokeColor=none;fillColor=none;fontSize=46;fontFamily=Helvetica;fontColor=#CC0000;" parent="1" vertex="1"><mxGeometry x="249" y="183" width="45" height="63" as="geometry"/></mxCell></root></mxGraphModel></diagram><diagram id="96Ep6FE1HxqaTuwzfNl_" name="第 8 页"><mxGraphModel dx="477" dy="293" grid="0" gridSize="10" guides="1" tooltips="1" connect="1" arrows="1" fold="1" page="1" pageScale="1" pageWidth="550" pageHeight="1000" math="0" shadow="0"><root><mxCell id="0"/><mxCell id="1" parent="0"/><mxCell id="mUhFEWi-M-su0q0KKcvA-1" style="rounded=0;sketch=0;orthogonalLoop=1;jettySize=auto;html=1;exitX=1;exitY=0.25;exitDx=0;exitDy=0;entryX=0;entryY=0.25;entryDx=0;entryDy=0;fontFamily=Comic Sans MS;endArrow=blockThin;endFill=1;strokeColor=#CC0000;dashed=1;" parent="1" source="mUhFEWi-M-su0q0KKcvA-2" target="mUhFEWi-M-su0q0KKcvA-19" edge="1"><mxGeometry relative="1" as="geometry"/></mxCell><mxCell id="mUhFEWi-M-su0q0KKcvA-2" value="" style="rounded=0;whiteSpace=wrap;html=1;sketch=0;fontFamily=Comic Sans MS;" parent="1" vertex="1"><mxGeometry x="153" y="158" width="14" height="36" as="geometry"/></mxCell><mxCell id="mUhFEWi-M-su0q0KKcvA-3" value="X" style="whiteSpace=wrap;html=1;aspect=fixed;fillColor=#008a00;fontColor=#ffffff;strokeColor=#000000;" parent="1" vertex="1"><mxGeometry x="117" y="158" width="36" height="36" as="geometry"/></mxCell><mxCell id="mUhFEWi-M-su0q0KKcvA-4" value="Y" style="whiteSpace=wrap;html=1;aspect=fixed;fillColor=#fa6800;fontColor=#000000;strokeColor=#000000;" parent="1" vertex="1"><mxGeometry x="214.5" y="238" width="36" height="36" as="geometry"/></mxCell><mxCell id="mUhFEWi-M-su0q0KKcvA-5" value="Z" style="whiteSpace=wrap;html=1;aspect=fixed;fillColor=#e3c800;fontColor=#000000;strokeColor=#000000;" parent="1" vertex="1"><mxGeometry x="311.5" y="158" width="36" height="36" as="geometry"/></mxCell><mxCell id="mUhFEWi-M-su0q0KKcvA-10" value="" style="ellipse;html=1;shape=startState;fillColor=#000000;strokeColor=none;sketch=0;fontFamily=Comic Sans MS;" parent="1" vertex="1"><mxGeometry x="151.5" y="158" width="17" height="17" as="geometry"/></mxCell><mxCell id="mUhFEWi-M-su0q0KKcvA-11" value="" style="html=1;verticalAlign=bottom;endArrow=blockThin;endSize=8;strokeColor=#000000;rounded=0;fontFamily=Comic Sans MS;sketch=0;endFill=1;entryX=0;entryY=0.25;entryDx=0;entryDy=0;exitX=1.031;exitY=0.246;exitDx=0;exitDy=0;exitPerimeter=0;" parent="1" source="mUhFEWi-M-su0q0KKcvA-2" target="mUhFEWi-M-su0q0KKcvA-12" edge="1"><mxGeometry relative="1" as="geometry"><mxPoint x="203" y="167" as="targetPoint"/><mxPoint x="173" y="167" as="sourcePoint"/></mxGeometry></mxCell><mxCell id="mUhFEWi-M-su0q0KKcvA-12" value="" style="rounded=0;whiteSpace=wrap;html=1;sketch=0;fontFamily=Comic Sans MS;" parent="1" vertex="1"><mxGeometry x="200.5" y="238" width="14" height="36" as="geometry"/></mxCell><mxCell id="mUhFEWi-M-su0q0KKcvA-13" value="" style="ellipse;html=1;shape=startState;fillColor=#000000;strokeColor=none;sketch=0;fontFamily=Comic Sans MS;" parent="1" vertex="1"><mxGeometry x="199" y="257" width="17" height="17" as="geometry"/></mxCell><mxCell id="mUhFEWi-M-su0q0KKcvA-14" value="" style="html=1;verticalAlign=bottom;endArrow=blockThin;endSize=8;strokeColor=#000000;rounded=0;fontFamily=Comic Sans MS;sketch=0;endFill=1;entryX=1;entryY=0.75;entryDx=0;entryDy=0;exitX=0;exitY=0.75;exitDx=0;exitDy=0;" parent="1" source="mUhFEWi-M-su0q0KKcvA-12" target="mUhFEWi-M-su0q0KKcvA-2" edge="1"><mxGeometry relative="1" as="geometry"><mxPoint x="198" y="176.99999999999994" as="targetPoint"/><mxPoint x="175.69500000000005" y="177.027" as="sourcePoint"/></mxGeometry></mxCell><mxCell id="mUhFEWi-M-su0q0KKcvA-15" value="" style="rounded=0;whiteSpace=wrap;html=1;sketch=0;fontFamily=Comic Sans MS;" parent="1" vertex="1"><mxGeometry x="250" y="238" width="14" height="36" as="geometry"/></mxCell><mxCell id="mUhFEWi-M-su0q0KKcvA-16" value="" style="ellipse;html=1;shape=startState;fillColor=#000000;strokeColor=none;sketch=0;fontFamily=Comic Sans MS;" parent="1" vertex="1"><mxGeometry x="248.5" y="238" width="17" height="17" as="geometry"/></mxCell><mxCell id="mUhFEWi-M-su0q0KKcvA-17" value="" style="html=1;verticalAlign=bottom;endArrow=blockThin;endSize=8;strokeColor=#000000;rounded=0;fontFamily=Comic Sans MS;sketch=0;endFill=1;entryX=0;entryY=0.25;entryDx=0;entryDy=0;exitX=1.031;exitY=0.246;exitDx=0;exitDy=0;exitPerimeter=0;" parent="1" source="mUhFEWi-M-su0q0KKcvA-15" target="mUhFEWi-M-su0q0KKcvA-19" edge="1"><mxGeometry relative="1" as="geometry"><mxPoint x="300" y="167" as="targetPoint"/><mxPoint x="270" y="167" as="sourcePoint"/></mxGeometry></mxCell><mxCell id="mUhFEWi-M-su0q0KKcvA-18" style="edgeStyle=none;rounded=0;sketch=0;orthogonalLoop=1;jettySize=auto;html=1;exitX=0;exitY=0.75;exitDx=0;exitDy=0;entryX=1;entryY=0.75;entryDx=0;entryDy=0;dashed=1;fontFamily=Comic Sans MS;endArrow=blockThin;endFill=1;strokeColor=#CC0000;" parent="1" source="mUhFEWi-M-su0q0KKcvA-19" target="mUhFEWi-M-su0q0KKcvA-2" edge="1"><mxGeometry relative="1" as="geometry"/></mxCell><mxCell id="mUhFEWi-M-su0q0KKcvA-19" value="" style="rounded=0;whiteSpace=wrap;html=1;sketch=0;fontFamily=Comic Sans MS;" parent="1" vertex="1"><mxGeometry x="297.5" y="158" width="14" height="36" as="geometry"/></mxCell><mxCell id="mUhFEWi-M-su0q0KKcvA-20" value="" style="ellipse;html=1;shape=startState;fillColor=#000000;strokeColor=none;sketch=0;fontFamily=Comic Sans MS;" parent="1" vertex="1"><mxGeometry x="296" y="177" width="17" height="17" as="geometry"/></mxCell><mxCell id="mUhFEWi-M-su0q0KKcvA-21" value="" style="html=1;verticalAlign=bottom;endArrow=blockThin;endSize=8;strokeColor=#000000;rounded=0;fontFamily=Comic Sans MS;sketch=0;endFill=1;entryX=1;entryY=0.75;entryDx=0;entryDy=0;exitX=0;exitY=0.75;exitDx=0;exitDy=0;" parent="1" source="mUhFEWi-M-su0q0KKcvA-19" target="mUhFEWi-M-su0q0KKcvA-15" edge="1"><mxGeometry relative="1" as="geometry"><mxPoint x="295" y="176.99999999999994" as="targetPoint"/><mxPoint x="272.69500000000005" y="177.027" as="sourcePoint"/></mxGeometry></mxCell><mxCell id="mUhFEWi-M-su0q0KKcvA-22" value="" style="rounded=0;whiteSpace=wrap;html=1;sketch=0;fontFamily=Comic Sans MS;" parent="1" vertex="1"><mxGeometry x="347.5" y="158" width="14" height="36" as="geometry"/></mxCell><mxCell id="mUhFEWi-M-su0q0KKcvA-23" value="" style="ellipse;html=1;shape=startState;fillColor=#000000;strokeColor=none;sketch=0;fontFamily=Comic Sans MS;" parent="1" vertex="1"><mxGeometry x="346" y="158" width="17" height="17" as="geometry"/></mxCell><mxCell id="mUhFEWi-M-su0q0KKcvA-24" value="" style="html=1;verticalAlign=bottom;endArrow=blockThin;endSize=8;strokeColor=#000000;rounded=0;fontFamily=Comic Sans MS;sketch=0;endFill=1;entryX=0;entryY=0.25;entryDx=0;entryDy=0;exitX=1.031;exitY=0.246;exitDx=0;exitDy=0;exitPerimeter=0;" parent="1" source="mUhFEWi-M-su0q0KKcvA-22" edge="1"><mxGeometry relative="1" as="geometry"><mxPoint x="395" y="167" as="targetPoint"/><mxPoint x="367.5" y="167" as="sourcePoint"/></mxGeometry></mxCell><mxCell id="mUhFEWi-M-su0q0KKcvA-25" value="" style="whiteSpace=wrap;html=1;aspect=fixed;fillColor=#000000;sketch=1;strokeColor=default;" parent="1" vertex="1"><mxGeometry x="35.5" y="158" width="36" height="36" as="geometry"/></mxCell><mxCell id="mUhFEWi-M-su0q0KKcvA-26" value="&lt;font face=&quot;Comic Sans MS&quot;&gt;NULL&lt;/font&gt;" style="text;html=1;align=center;verticalAlign=middle;resizable=0;points=[];autosize=1;strokeColor=none;fillColor=none;" parent="1" vertex="1"><mxGeometry x="33" y="197" width="42" height="19" as="geometry"/></mxCell><mxCell id="mUhFEWi-M-su0q0KKcvA-27" value="" style="rounded=0;whiteSpace=wrap;html=1;sketch=0;fontFamily=Comic Sans MS;" parent="1" vertex="1"><mxGeometry x="105" y="158" width="14" height="36" as="geometry"/></mxCell><mxCell id="mUhFEWi-M-su0q0KKcvA-28" value="" style="ellipse;html=1;shape=startState;fillColor=#000000;strokeColor=none;sketch=0;fontFamily=Comic Sans MS;" parent="1" vertex="1"><mxGeometry x="103.5" y="177" width="17" height="17" as="geometry"/></mxCell><mxCell id="mUhFEWi-M-su0q0KKcvA-29" value="" style="html=1;verticalAlign=bottom;endArrow=blockThin;endSize=8;strokeColor=#000000;rounded=0;fontFamily=Comic Sans MS;sketch=0;endFill=1;entryX=1;entryY=0.75;entryDx=0;entryDy=0;exitX=0;exitY=0.75;exitDx=0;exitDy=0;" parent="1" source="mUhFEWi-M-su0q0KKcvA-27" edge="1"><mxGeometry relative="1" as="geometry"><mxPoint x="71.5" y="185" as="targetPoint"/><mxPoint x="80.19500000000005" y="177.027" as="sourcePoint"/></mxGeometry></mxCell><mxCell id="mUhFEWi-M-su0q0KKcvA-30" value="prec" style="text;html=1;align=center;verticalAlign=middle;resizable=0;points=[];autosize=1;strokeColor=none;fillColor=none;fontFamily=Comic Sans MS;" parent="1" vertex="1"><mxGeometry x="84.5" y="197.5" width="35" height="18" as="geometry"/></mxCell><mxCell id="mUhFEWi-M-su0q0KKcvA-31" value="data" style="text;html=1;align=center;verticalAlign=middle;resizable=0;points=[];autosize=1;strokeColor=none;fillColor=none;fontFamily=Comic Sans MS;" parent="1" vertex="1"><mxGeometry x="119.5" y="198" width="35" height="18" as="geometry"/></mxCell><mxCell id="mUhFEWi-M-su0q0KKcvA-32" value="next" style="text;html=1;align=center;verticalAlign=middle;resizable=0;points=[];autosize=1;strokeColor=none;fillColor=none;fontFamily=Comic Sans MS;" parent="1" vertex="1"><mxGeometry x="154.5" y="198" width="36" height="18" as="geometry"/></mxCell><mxCell id="mUhFEWi-M-su0q0KKcvA-33" value="&lt;font style=&quot;font-size: 19px;&quot;&gt;remove&lt;/font&gt;" style="text;html=1;align=center;verticalAlign=middle;resizable=0;points=[];autosize=1;strokeColor=none;fillColor=none;fontSize=46;fontFamily=Helvetica;fontColor=#CC0000;" parent="1" vertex="1"><mxGeometry x="196" y="48" width="73" height="69" as="geometry"/></mxCell><mxCell id="mUhFEWi-M-su0q0KKcvA-34" value="A" style="whiteSpace=wrap;html=1;aspect=fixed;fillColor=#d80073;fontColor=#ffffff;strokeColor=#A50040;" parent="1" vertex="1"><mxGeometry x="408.5" y="158" width="36" height="36" as="geometry"/></mxCell><mxCell id="mUhFEWi-M-su0q0KKcvA-35" value="" style="rounded=0;whiteSpace=wrap;html=1;sketch=0;fontFamily=Comic Sans MS;" parent="1" vertex="1"><mxGeometry x="394.5" y="158" width="14" height="36" as="geometry"/></mxCell><mxCell id="mUhFEWi-M-su0q0KKcvA-39" style="edgeStyle=none;rounded=0;sketch=0;orthogonalLoop=1;jettySize=auto;html=1;exitX=0;exitY=0.75;exitDx=0;exitDy=0;entryX=1;entryY=0.75;entryDx=0;entryDy=0;fontFamily=Helvetica;fontSize=35;fontColor=#CC0000;endArrow=blockThin;endFill=1;strokeColor=#000000;" parent="1" source="mUhFEWi-M-su0q0KKcvA-35" target="mUhFEWi-M-su0q0KKcvA-22" edge="1"><mxGeometry relative="1" as="geometry"/></mxCell><mxCell id="mUhFEWi-M-su0q0KKcvA-36" value="" style="ellipse;html=1;shape=startState;fillColor=#000000;strokeColor=none;sketch=0;fontFamily=Comic Sans MS;" parent="1" vertex="1"><mxGeometry x="393" y="177" width="17" height="17" as="geometry"/></mxCell><mxCell id="mUhFEWi-M-su0q0KKcvA-37" value="" style="rounded=0;whiteSpace=wrap;html=1;sketch=0;fontFamily=Comic Sans MS;" parent="1" vertex="1"><mxGeometry x="444.5" y="158" width="14" height="36" as="geometry"/></mxCell><mxCell id="mUhFEWi-M-su0q0KKcvA-38" value="" style="ellipse;html=1;shape=startState;fillColor=#000000;strokeColor=none;sketch=0;fontFamily=Comic Sans MS;" parent="1" vertex="1"><mxGeometry x="443" y="158" width="17" height="17" as="geometry"/></mxCell><mxCell id="a73ah682gWGGhbYR3AYd-1" value="" style="whiteSpace=wrap;html=1;aspect=fixed;fillColor=#000000;sketch=1;strokeColor=default;" parent="1" vertex="1"><mxGeometry x="491.07" y="158" width="36" height="36" as="geometry"/></mxCell><mxCell id="a73ah682gWGGhbYR3AYd-2" value="&lt;font face=&quot;Comic Sans MS&quot;&gt;NULL&lt;/font&gt;" style="text;html=1;align=center;verticalAlign=middle;resizable=0;points=[];autosize=1;strokeColor=none;fillColor=none;" parent="1" vertex="1"><mxGeometry x="488.57" y="197" width="42" height="19" as="geometry"/></mxCell><mxCell id="a73ah682gWGGhbYR3AYd-3" value="" style="html=1;verticalAlign=bottom;endArrow=blockThin;endSize=8;strokeColor=#000000;rounded=0;fontFamily=Comic Sans MS;sketch=0;endFill=1;entryX=0;entryY=0.25;entryDx=0;entryDy=0;exitX=1.031;exitY=0.246;exitDx=0;exitDy=0;exitPerimeter=0;" parent="1" edge="1"><mxGeometry relative="1" as="geometry"><mxPoint x="491.57" y="167" as="targetPoint"/><mxPoint x="458.50399999999996" y="166.856" as="sourcePoint"/></mxGeometry></mxCell><mxCell id="a73ah682gWGGhbYR3AYd-4" value="" style="endArrow=classic;html=1;rounded=0;sketch=0;fontFamily=Helvetica;fontSize=35;fontColor=#CC0000;strokeColor=#000000;entryX=0.5;entryY=0;entryDx=0;entryDy=0;" parent="1" source="mUhFEWi-M-su0q0KKcvA-33" target="mUhFEWi-M-su0q0KKcvA-4" edge="1"><mxGeometry width="50" height="50" relative="1" as="geometry"><mxPoint x="233" y="111" as="sourcePoint"/><mxPoint x="266" y="77" as="targetPoint"/></mxGeometry></mxCell></root></mxGraphModel></diagram></mxfile>